<?xml version="1.0" encoding="UTF-8"?>
<svg id="Layer_2" data-name="Layer 2" xmlns="http://www.w3.org/2000/svg" viewBox="0 0 445 474.18">
  <defs>
    <style>
      .cls-1 {
        fill: #ed1c24;
      }

      .cls-1, .cls-2, .cls-3, .cls-4 {
        stroke-width: 0px;
      }

      .cls-2 {
        fill: #231f20;
      }

      .cls-3 {
        fill: #fff;
        opacity: .74;
      }

      .cls-4 {
        fill: #006838;
      }
    </style>
  </defs>
  <g id="Layer_1-2" data-name="Layer 1">
    <path class="cls-1" d="M445,257.68c0,119.57-99.62,216.5-222.5,216.5S0,377.25,0,257.68c0-43.01,12.89-83.1,35.12-116.8,39.57-59.97,108.71-99.7,187.38-99.7,72.22,0,136.4,33.48,177.05,85.36,28.52,36.4,45.45,81.85,45.45,131.14Z"/>
    <path class="cls-4" d="M399.55,126.54c-32.92,2.21-67.52,3.74-96.86-11.2-11.54-5.88-21.93-14.18-34.21-18.31,7.64,20.91,4.77,44.34-2.04,65.54-6.8,21.2-17.32,41-25.23,61.81-12.09-6.53-17.67-20.56-22.34-33.48-11.76-32.61-23.53-65.22-35.29-97.82-41.43,33.32-95.4,50.58-148.46,47.8,39.57-59.97,108.71-99.7,187.38-99.7,72.22,0,136.4,33.48,177.05,85.36Z"/>
    <path class="cls-4" d="M217.33,5.13c2.95-3.82,8.19-6.25,12.74-4.61,6.39,2.31,7.9,10.49,8.4,17.27.79,10.67,7.6,63.66-19.54,44.65-13.22-9.26-9.92-46.54-1.6-57.31Z"/>
    <circle class="cls-3" cx="64" cy="230.18" r="22"/>
    <ellipse class="cls-3" cx="57.5" cy="298.18" rx="15.5" ry="17"/>
    <g>
      <path class="cls-2" d="M217.11,268.05c-.74,5.97,5.37,11.54,11.35,10.84s10.57-6.78,10.26-12.79c-.44-8.57-10.71-14.97-18.65-11.69s-10.72,14.94-5.22,21.53c5.5,6.59,17.34,6.03,22.27-1s1.57-18.26-6.37-21.51c-3.07-1.26-6.7-1.4-9.66.11-3.47,1.77-5.62,5.65-5.74,9.54-.2,6.42,5.26,12.5,11.66,12.99"/>
      <path class="cls-2" d="M214.61,268.05c-.77,7.56,6.85,14.23,14.19,13.3s13.04-8.36,12.38-15.72c-.61-6.79-6.01-12.34-12.49-14.04s-13.31,1.05-16.76,6.93c-3.13,5.35-3.48,12.78.2,17.97,3.95,5.56,11.12,7.59,17.62,6.07s11.42-6.93,12.09-13.71c.64-6.38-2.48-13.15-7.93-16.59-3.4-2.15-7.87-2.92-11.76-1.8s-6.92,4.23-8.4,8.04c-2.74,7.07,1.13,15.38,7.83,18.6,1.74.84,3.5,1.3,5.43,1.48,1.35.12,2.5-1.24,2.5-2.5,0-1.46-1.15-2.38-2.5-2.5-5.01-.46-9.24-5.33-9.17-10.32.04-2.56,1.22-5.22,3.27-6.8,2.43-1.87,5.83-1.86,8.58-.77,4.13,1.64,6.8,6.08,7.17,10.26.42,4.65-1.56,8.81-5.87,10.92-3.89,1.91-9.07,1.63-12.65-1.01s-4.5-7.36-3.48-11.4,4.18-7.88,8.53-8.36,9.24,2.01,11.54,5.96c2.73,4.7.71,11.35-4.48,13.73-5.13,2.34-11.43-2.1-10.86-7.73.14-1.35-1.25-2.5-2.5-2.5-1.47,0-2.36,1.15-2.5,2.5h0Z"/>
    </g>
    <path class="cls-2" d="M290,261.68c3.22,0,3.22-5,0-5s-3.22,5,0,5h0Z"/>
    <g>
      <path class="cls-2" d="M288.33,257.56c.12-3.33-3.7-5.86-6.97-5.18s-5.64,3.7-6.49,6.92c-1.88,7.12,3.4,15.24,10.65,16.53,7.25,1.29,14.95-4.39,15.97-11.69,1.02-7.29-4.7-14.82-11.98-15.91-7.28-1.09-14.9,4.33-16.38,11.55"/>
      <path class="cls-2" d="M290.83,257.56c0-4.45-4.18-7.9-8.51-7.79-4.74.12-8.36,4.08-9.71,8.35-2.54,8.01,2.76,17,10.48,19.66,8.25,2.85,17.48-2.72,20.25-10.64,2.91-8.32-2.56-17.6-10.48-20.6-9.24-3.51-20.08,3.17-22.14,12.58-.69,3.14,4.13,4.48,4.82,1.33,1.27-5.77,6.8-10.14,12.75-9.83s10.65,5.81,10.81,11.44-4.85,10.94-10.52,11.42-10.72-4.22-11.51-9.76c-.4-2.85.49-6.31,2.98-8.08,1.19-.85,2.5-1.13,3.82-.59,1.16.49,1.95,1.44,1.95,2.51,0,3.22,5.01,3.22,5,0h0Z"/>
    </g>
    <g>
      <path class="cls-2" d="M259.08,301.01c5.1,2.5,11.59,1.87,16.12-1.57"/>
      <path class="cls-2" d="M257.82,303.17c5.93,2.84,13.3,2.41,18.64-1.57,1.08-.81,1.63-2.16.9-3.42-.62-1.07-2.33-1.71-3.42-.9-.53.39-1.07.76-1.65,1.08-.29.16-.58.31-.87.45-.15.07-.3.14-.45.21.25-.11.05-.02-.09.03-.62.23-1.24.43-1.88.59-.32.08-.64.15-.96.21-.16.03-.32.06-.49.08.36-.06-.03,0-.19.02-.66.06-1.31.09-1.97.07-.33,0-.66-.03-.98-.06-.04,0-.53-.05-.28-.02s-.23-.04-.28-.04c-.65-.11-1.29-.26-1.92-.45-.31-.1-.63-.2-.93-.32-.04-.02-.47-.19-.27-.11.22.09-.39-.19-.38-.18-1.18-.56-2.75-.36-3.42.9-.59,1.12-.36,2.82.9,3.42h0Z"/>
    </g>
    <g>
      <path class="cls-2" d="M256.96,302.35c5.33,1.35,10.66,2.7,15.99,4.05"/>
      <path class="cls-2" d="M256.29,304.76c5.33,1.35,10.66,2.7,15.99,4.05,1.27.32,2.77-.41,3.08-1.75s-.39-2.73-1.75-3.08c-5.33-1.35-10.66-2.7-15.99-4.05-1.27-.32-2.77.41-3.08,1.75s.39,2.73,1.75,3.08h0Z"/>
    </g>
  </g>
</svg>