<?xml version="1.0" encoding="UTF-8"?>
<svg id="Layer_2" data-name="Layer 2" xmlns="http://www.w3.org/2000/svg" xmlns:xlink="http://www.w3.org/1999/xlink" viewBox="0 0 212.28 318.58">
  <defs>
    <style>
      .cls-1, .cls-2, .cls-3 {
        fill: #fff;
      }

      .cls-4 {
        fill: none;
      }

      .cls-4, .cls-5 {
        stroke: #22120a;
        stroke-miterlimit: 10;
      }

      .cls-6 {
        fill: #47250e;
      }

      .cls-6, .cls-7, .cls-8, .cls-9, .cls-10, .cls-2, .cls-11, .cls-12, .cls-13, .cls-3, .cls-14, .cls-15 {
        stroke-width: 0px;
      }

      .cls-16, .cls-5, .cls-15 {
        fill: #08f;
      }

      .cls-7 {
        opacity: .12;
      }

      .cls-7, .cls-10, .cls-11 {
        fill: #231f20;
      }

      .cls-8 {
        opacity: .36;
      }

      .cls-8, .cls-12 {
        fill: #22120a;
      }

      .cls-9 {
        fill: #190f0c;
      }

      .cls-17 {
        clip-path: url(#clippath-1);
      }

      .cls-10, .cls-3 {
        opacity: .13;
      }

      .cls-18 {
        clip-path: url(#clippath);
      }

      .cls-13 {
        fill: #603813;
      }

      .cls-14 {
        fill: #ffb115;
      }
    </style>
    <clipPath id="clippath">
      <path class="cls-5" d="M68.89,161.86l12.94-2.86c1.92-.42,3.84.66,4.48,2.52l8.63,25.21c.72,2.1-.48,4.37-2.61,4.96l-11.15,3.1c-1.88.52-3.86-.45-4.6-2.25l-10.42-25.45c-.91-2.21.4-4.71,2.73-5.22Z"/>
    </clipPath>
    <clipPath id="clippath-1">
      <path class="cls-2" d="M75.93,130.83c.69-1.1.87-2.62,2-3.27.98-.56,2.31-.13,3.01.76s.87,2.09.76,3.22c-.29,3.06-2.54,5.85-5.48,6.76s-6.38-.09-8.35-2.45c-1.78-2.13-.91-5.27,2.19-4.42,2.1.58,4.19,2.08,5.88-.61Z"/>
    </clipPath>
  </defs>
  <g id="Layer_1-2" data-name="Layer 1">
    <path class="cls-13" d="M181.3,317.23l-42.55-.51-7.21-55.1-.18-1.4-.73-5.56-1.07-8.18-2.55-12.79-.23-1.16-3.69-18.54-6.03,1.73-.69.2-5.2,1.48.03.17-22.69,6.04-.18.05c-.05-.47-.11-.94-.16-1.41-.02-.16-.04-.32-.05-.48-.23-2.02-.45-4.03-.68-6.04-.16-1.45-.33-2.89-.49-4.32-3.06-26.59-6.27-51.12-8.75-61.86-.74-3.2,1.29-6.38,4.51-7.04l6.68-1.37s23.52,3.48,50.43,53.55c.56,1.05,1.13,2.13,1.7,3.22,2.91,5.59,5.85,11.73,8.8,18.47,0,0,3.14,8.72,7.13,20.91.8,2.43,1.71,5.13,2.72,8.03,8.04,23.25,21.52,59.47,21.13,71.91Z"/>
    <path class="cls-13" d="M118.66,317.91l-44.59-1.02c-1.36-8.42,1.48-27.04,4.92-45.9,2.55-13.97,5.43-28.07,7.18-38.25.69-4.06,1.36-7.77,1.95-10.97,1.07-5.87,1.88-10.01,2.16-11.41.06-.34.1-.52.1-.52l5.39-1.22,21.28-4.82-.68,12.12-1.29,22.88.93,20.49,2.65,58.62Z"/>
    <path class="cls-14" d="M136.99,189.33l-50.82,16.33c-2.87-24.53-5.83-46.59-8.14-56.63-.74-3.2,1.29-6.37,4.51-7.03l6.67-1.37s21.99,3.24,47.78,48.7Z"/>
    <g>
      <path class="cls-16" d="M68.89,161.86l12.94-2.86c1.92-.42,3.84.66,4.48,2.52l8.63,25.21c.72,2.1-.48,4.37-2.61,4.96l-11.15,3.1c-1.88.52-3.86-.45-4.6-2.25l-10.42-25.45c-.91-2.21.4-4.71,2.73-5.22Z"/>
      <g class="cls-18">
        <g>
          <path class="cls-14" d="M82.4,173.37c.22.69.09,1.33-.24,1.95-.26.49-.61.93-.96,1.36-.35.44-.71.87-1.03,1.33-.39.57-.49,1.21-.24,1.85.24.63.73,1.04,1.38,1.23.7.2,1.4.38,2.09.57.49.14.96.31,1.39.59.49.32.82.76.99,1.33.05.18-.03.35-.19.4-.17.06-.35-.03-.41-.22-.08-.23-.18-.45-.34-.64-.29-.35-.68-.56-1.1-.69-.75-.23-1.5-.43-2.26-.64-.42-.12-.83-.24-1.19-.49-1.32-.94-1.43-2.55-.64-3.68.41-.59.89-1.13,1.32-1.71.24-.32.47-.66.66-1.02.25-.46.29-.95.11-1.45-.07-.2,0-.37.18-.43.18-.06.34.03.41.23.01.04.03.08.04.12Z"/>
          <path class="cls-14" d="M81.29,177.07c.15-.18.28-.36.42-.52.72.15,1.36.41,1.85.98.79.91.84,2.23.13,3.25-.13.18-.26.35-.39.52-.22-.06-.43-.11-.66-.17.16-.21.32-.42.47-.62.33-.44.5-.94.44-1.49-.1-.86-.6-1.4-1.39-1.69-.28-.1-.57-.17-.87-.26Z"/>
          <path class="cls-14" d="M80.38,176.2c-.14.18-.28.35-.42.53-.78-.24-1.56-.5-2.05-1.23-.14-.21-.24-.47-.33-.71-.06-.16.04-.33.2-.38.16-.05.34.02.39.18.21.74.76,1.12,1.44,1.36.25.09.51.17.78.25Z"/>
          <path class="cls-14" d="M82.42,182.37c-.2.3-.41.59-.59.88-.23.39-.38.8-.32,1.26.02.14.06.29.1.43.05.19-.02.36-.19.42-.17.06-.34-.03-.41-.21-.24-.66-.2-1.31.13-1.93.17-.33.39-.63.59-.95.02-.03.08-.06.12-.05.19.04.38.1.57.15Z"/>
          <path class="cls-14" d="M80.19,180.04l3.18-1.06s.01.02.02.03q.04.26-.2.34c-.88.29-1.77.59-2.65.88q-.19.06-.29-.11s-.03-.05-.05-.09Z"/>
          <path class="cls-14" d="M83.16,178.32l-3.18,1.06c0-.1-.01-.2-.02-.3.05-.02.1-.03.15-.05.91-.3,1.82-.6,2.73-.91q.18-.06.28.11s.03.05.05.09Z"/>
          <path class="cls-14" d="M78.5,174.98c-.04-.09-.07-.16-.11-.25l3.27-1.09c.02.09.04.18.05.27l-3.21,1.07Z"/>
          <path class="cls-14" d="M84.85,183.38c.04.08.08.16.12.24l-3.27,1.09c-.02-.09-.04-.18-.06-.27l3.2-1.06Z"/>
          <path class="cls-14" d="M79.11,175.52l2.42-.81c-.01.21-.1.33-.29.39-.53.18-1.07.34-1.59.54-.22.08-.37.03-.54-.12Z"/>
          <path class="cls-14" d="M81.83,183.63c.06-.19.12-.34.34-.41.51-.15,1.01-.31,1.5-.5.22-.08.38-.03.56.11l-2.39.8Z"/>
          <path class="cls-14" d="M83.18,180.09c-.1.19-.16.37-.4.44-.39.11-.77.24-1.15.38-.17.06-.31.05-.46-.03-.04-.02-.09-.03-.13-.04,0-.01,0-.03.01-.04l2.14-.71Z"/>
          <path class="cls-14" d="M82.3,177.58l-2.1.7c.12-.19.17-.38.41-.45.37-.1.73-.24,1.1-.36.23-.08.38-.05.59.11Z"/>
        </g>
      </g>
      <path class="cls-4" d="M68.89,161.86l12.94-2.86c1.92-.42,3.84.66,4.48,2.52l8.63,25.21c.72,2.1-.48,4.37-2.61,4.96l-11.15,3.1c-1.88.52-3.86-.45-4.6-2.25l-10.42-25.45c-.91-2.21.4-4.71,2.73-5.22Z"/>
    </g>
    <path class="cls-13" d="M117.68,172.76c-.07.27-.16.54-.24.81-.66,2-1.66,4.34-3.27,5.74-2.12,1.85-4.51,3.11-7.18,3.88-1.79.51-3.64.78-5.5.8-.82,0-1.65.08-2.43-.17-1.02-.32-2-.72-3.09-.5-2.43.49-4.21,1.68-6.79.9-2.61-.79-4.69-3.37-4.51-6.09.1-1.45.82-2.86,1.95-3.78.76-.62,1.7-1.02,2.67-1.15.62-.09-1.32-.43-1.88-1.91-.31-.82.04-1.79.69-2.38s1.55-.83,2.43-.86c4.95-.16,8.29,5.15,13.49,4.26,2.47-.42,4.72-2.01,5.95-4.2.64-1.14,1.01-2.45,1.11-3.75.08-1.07-.6-2.38.05-3.32.45-.65,1.26-.98,2.05-1.03,3.54-.23,4.86,4.09,5.08,6.86.16,1.97-.04,3.97-.57,5.88Z"/>
    <path class="cls-13" d="M71.48,119.34l-35.97,12.62c-5.32,1.87-11.15-.93-13.02-6.26h0c-1.87-5.32.93-11.15,6.26-13.02l37.55-13.17"/>
    <path class="cls-6" d="M66.29,99.51l36.12-12.67c5.32-1.87,11.15.93,13.02,6.26h0c1.87,5.32-.93,11.15-6.26,13.02l-37.7,13.22"/>
    <rect class="cls-12" x="25.77" y="104.08" width="86.9" height="10.64" rx="5.19" ry="5.19" transform="translate(-32.31 29.07) rotate(-19.33)"/>
    <circle class="cls-13" cx="74.32" cy="184.55" r="7.06"/>
    <path class="cls-9" d="M.04,17.51c.38,4.31,2.33,11.02,4.32,14.87,6.34,12.32,16.16,22.81,27.95,29.88,8.54,5.13,19.67,8.5,27.55.05,1.11-1.2,2.04-2.57,2.77-4.04,3.63-7.35,2.74-15.58.54-23.18-2.72-9.38-7.55-18.3-14.71-24.89C41.3,3.6,31.71-.49,22.14.05,15.4.43,6.66,7.65,2.08,11.88.58,13.28-.17,15.3.03,17.38c0,.04,0,.09.01.13Z"/>
    <rect class="cls-13" x="31.68" y="67.27" width="73.53" height="75.4" rx="24.41" ry="24.41" transform="translate(-31.08 28.83) rotate(-19.48)"/>
    <path class="cls-8" d="M92.67,136.14l-23.3,8.24c-1.66.59-3.34.98-5.02,1.2-.03-.14-.06-.29-.08-.44l23.29-8.23c12.71-4.5,19.37-18.45,14.88-31.16l-8.87-25.06c-3.66-10.35-13.59-16.69-24.02-16.26,12.14-3.16,24.87,3.46,29.13,15.5l8.86,25.05c4.5,12.71-2.16,26.66-14.87,31.16Z"/>
    <ellipse class="cls-2" cx="54.69" cy="113.57" rx="14.26" ry="16.02" transform="translate(-20.13 12.13) rotate(-10.7)"/>
    <ellipse class="cls-11" cx="60.93" cy="119.45" rx="6.26" ry="7.99"/>
    <ellipse class="cls-2" cx="84.75" cy="107.33" rx="15.19" ry="16.02"/>
    <ellipse class="cls-11" cx="80.8" cy="114.77" rx="6.26" ry="7.99"/>
    <path class="cls-12" d="M49.98,70.42s2.14,38.66-14.36,50.72c0,0-16.49-31.53-7.94-37.56,0,0-6.41-5.21,22.3-13.16Z"/>
    <path class="cls-12" d="M58.23,67.75s27.3,33.97,48.68,33.14c0,0-11.21-37.52-22.13-36.91,0,0,.91-8.66-26.55,3.77Z"/>
    <path class="cls-11" d="M62.62,58.27c-.72,1.47-1.65,2.85-2.76,4.04-3.85,4.14-8.49,5.44-13.22,5.09.83-.41,1.57-1,2.16-1.74,3.9-4.86,10.5-14.09,10.41-20.84-.14-9.58-4.89-18.87-11.96-25.54-7.08-6.68-16.32-10.88-25.86-12.94-3.65-.78-7.42-1.27-11.12-1.12C14.15,2.52,18.45.26,22.14.05c9.57-.54,19.16,3.56,26.32,10.15,7.15,6.59,11.99,15.51,14.71,24.89,2.2,7.6,3.08,15.83-.55,23.18Z"/>
    <rect class="cls-15" x="44.79" y="63.61" width="16.34" height="6.81" rx="3.14" ry="3.14" transform="translate(-15.28 15.65) rotate(-14.71)"/>
    <path class="cls-11" d="M43.3,88.15c-3.26,2.6-4.26,6.76-2.23,9.31,2.03,2.54,6.31,2.5,9.57-.09,3.26-2.6,7.2-8.97,5.18-11.51s-9.25-.29-12.51,2.3Z"/>
    <path class="cls-11" d="M82.19,83.38c3.26,2.6,4.26,6.76,2.23,9.31-2.03,2.54-6.31,2.5-9.57-.09-3.26-2.6-7.2-8.97-5.18-11.51s9.25-.29,12.51,2.3Z"/>
    <line class="cls-4" x1="71.68" y1="317.57" x2="212.28" y2="318.08"/>
    <path class="cls-15" d="M160.17,245.32l-29.54,9.34-1.07-8.18-2.55-12.79-.23-1.16-3.69-18.54-6.03,1.73-.69.2-1.29,22.88.93,20.49-37.02,11.7c2.55-13.97,5.43-28.07,7.18-38.25.69-4.06,1.36-7.77,1.95-10.97-.23-2.02-.45-4.03-.68-6.04-.16-1.45-.33-2.89-.49-4.32l3.33-1.05,5.49-1.74,44.05-13.93c.56,1.05,1.13,2.13,1.7,3.22,2.91,5.59,5.85,11.73,8.8,18.47,0,0,3.14,8.72,7.13,20.91.8,2.43,1.71,5.13,2.72,8.03Z"/>
    <path class="cls-7" d="M32.2,90.37c7.43-.86,14.51,4.92,16.05,13.29,1.6,8.7-3.37,16.91-11.12,18.33-1.41.26-2.82.28-4.19.07.03-.09.07-.17.11-.26,7.75-1.43,12.72-9.63,11.12-18.33-1.26-6.82-6.18-11.9-11.97-13.1Z"/>
    <path class="cls-7" d="M83.26,123.14c7.43.89,14.53-4.86,16.11-13.22,1.64-8.69-3.3-16.92-11.04-18.38-1.41-.27-2.82-.29-4.19-.09.03.09.07.17.11.26,7.74,1.46,12.68,9.69,11.04,18.38-1.29,6.81-6.23,11.87-12.03,13.05Z"/>
    <path class="cls-3" d="M136.99,189.33l-50.82,16.33s0-.03,0-.04l45.9-14.75c-25.79-45.46-47.78-48.7-47.78-48.7l-3.99.82c.65-.47,1.41-.82,2.25-.99l6.67-1.37s21.99,3.24,47.78,48.7Z"/>
    <path class="cls-10" d="M160.17,245.32l-29.54,9.34-.04-.34,26.86-8.49c-1.01-2.9-1.92-5.6-2.72-8.03-3.99-12.19-7.13-20.91-7.13-20.91-2.95-6.74-5.89-12.88-8.8-18.47-.52-.99-1.03-1.97-1.54-2.92l2.56-.81c.56,1.05,1.13,2.13,1.7,3.22,2.91,5.59,5.85,11.73,8.8,18.47,0,0,3.14,8.72,7.13,20.91.8,2.43,1.71,5.13,2.72,8.03Z"/>
    <g>
      <path class="cls-1" d="M75.93,130.83c.69-1.1.87-2.62,2-3.27.98-.56,2.31-.13,3.01.76s.87,2.09.76,3.22c-.29,3.06-2.54,5.85-5.48,6.76s-6.38-.09-8.35-2.45c-1.78-2.13-.91-5.27,2.19-4.42,2.1.58,4.19,2.08,5.88-.61Z"/>
      <g class="cls-17">
        <line class="cls-4" x1="73.54" y1="139.11" x2="70.89" y2="131.12"/>
        <line class="cls-4" x1="78.67" y1="137.03" x2="75.46" y2="130.72"/>
      </g>
    </g>
  </g>
</svg>