<?xml version="1.0" encoding="UTF-8"?>
<svg id="Layer_2" data-name="Layer 2" xmlns="http://www.w3.org/2000/svg" viewBox="0 0 673.32 214.27">
  <defs>
    <style>
      .cls-1 {
        fill: #08f;
        stroke-width: 0px;
      }
    </style>
  </defs>
  <g id="Layer_4" data-name="Layer 4">
    <g>
      <path class="cls-1" d="M25.37,129.46c-7.59-3.11-13.65-7.71-18.19-13.8-4.54-6.09-6.93-13.43-7.18-22.01h33.95c.5,4.85,2.17,8.55,5.04,11.1,2.86,2.55,6.59,3.82,11.19,3.82s8.46-1.09,11.19-3.26c2.73-2.17,4.1-5.19,4.1-9.05,0-3.23-1.09-5.91-3.26-8.02-2.18-2.11-4.85-3.85-8.02-5.22-3.17-1.37-7.68-2.92-13.52-4.66-8.46-2.61-15.36-5.22-20.71-7.83-5.35-2.61-9.95-6.46-13.8-11.57C2.3,53.85.37,47.2.37,38.99.37,26.8,4.79,17.25,13.62,10.35,22.45,3.45,33.95,0,48.13,0s26.05,3.45,34.88,10.35c8.83,6.9,13.55,16.51,14.18,28.82h-34.51c-.25-4.23-1.8-7.55-4.66-9.98-2.86-2.42-6.53-3.64-11.01-3.64-3.86,0-6.97,1.03-9.33,3.08-2.36,2.05-3.54,5.01-3.54,8.86,0,4.23,1.99,7.53,5.97,9.89,3.98,2.36,10.2,4.91,18.65,7.65,8.46,2.86,15.33,5.6,20.61,8.21,5.28,2.61,9.85,6.41,13.71,11.38,3.85,4.98,5.78,11.38,5.78,19.21s-1.9,14.24-5.69,20.33c-3.79,6.09-9.3,10.94-16.51,14.55-7.21,3.61-15.73,5.41-25.56,5.41s-18.16-1.55-25.74-4.66Z"/>
      <path class="cls-1" d="M118.17,52.42c4.04-8.08,9.54-14.3,16.51-18.65,6.96-4.35,14.74-6.53,23.32-6.53,7.34,0,13.77,1.49,19.31,4.48,5.53,2.98,9.79,6.9,12.78,11.75v-14.74h31.9v104.09h-31.9v-14.74c-3.11,4.85-7.43,8.77-12.96,11.75-5.54,2.98-11.97,4.48-19.31,4.48-8.46,0-16.17-2.21-23.13-6.62-6.97-4.41-12.47-10.69-16.51-18.84-4.04-8.14-6.06-17.56-6.06-28.26s2.02-20.08,6.06-28.17ZM183.46,61.93c-4.42-4.6-9.79-6.9-16.14-6.9s-11.72,2.27-16.14,6.81c-4.42,4.54-6.62,10.79-6.62,18.75s2.21,14.27,6.62,18.93c4.41,4.66,9.79,7,16.14,7s11.72-2.3,16.14-6.9c4.41-4.6,6.62-10.88,6.62-18.84s-2.21-14.24-6.62-18.84Z"/>
      <path class="cls-1" d="M408.8,39.36c7.65,7.83,11.47,18.72,11.47,32.64v60.81h-31.71v-56.52c0-6.72-1.77-11.91-5.32-15.58-3.54-3.67-8.43-5.5-14.64-5.5s-11.1,1.84-14.64,5.5c-3.54,3.67-5.32,8.86-5.32,15.58v56.52h-31.71v-56.52c0-6.72-1.77-11.91-5.32-15.58-3.54-3.67-8.43-5.5-14.64-5.5s-11.1,1.84-14.64,5.5c-3.54,3.67-5.32,8.86-5.32,15.58v56.52h-31.9V28.73h31.9v13.06c3.23-4.35,7.46-7.8,12.68-10.35,5.22-2.55,11.13-3.82,17.72-3.82,7.83,0,14.83,1.68,20.99,5.04,6.16,3.36,10.97,8.15,14.46,14.36,3.61-5.72,8.52-10.38,14.74-13.99,6.22-3.61,12.99-5.41,20.33-5.41,12.93,0,23.22,3.92,30.87,11.75Z"/>
      <path class="cls-1" d="M569.13,43.28c-2.36-4.35-5.75-7.68-10.17-9.98-4.42-2.3-9.61-3.45-15.58-3.45-10.32,0-18.59,3.39-24.81,10.17-6.22,6.78-9.33,15.83-9.33,27.14,0,12.06,3.26,21.48,9.79,28.26,6.53,6.78,15.51,10.17,26.96,10.17,7.83,0,14.46-1.99,19.87-5.97,5.41-3.98,9.36-9.7,11.85-17.16h-40.48v-23.5h69.39v29.66c-2.36,7.96-6.38,15.36-12.03,22.2-5.66,6.84-12.84,12.38-21.55,16.6-8.71,4.23-18.53,6.34-29.47,6.34-12.94,0-24.47-2.83-34.6-8.49-10.14-5.66-18.03-13.52-23.69-23.6-5.66-10.07-8.49-21.58-8.49-34.51s2.83-24.47,8.49-34.6c5.66-10.13,13.52-18.03,23.6-23.69,10.07-5.66,21.58-8.49,34.51-8.49,15.67,0,28.88,3.79,39.64,11.38,10.75,7.59,17.88,18.09,21.36,31.53h-35.26Z"/>
    </g>
    <path class="cls-1" d="M477.95,187.23c63.03-22.31,127.93-38.75,193.58-49.12.85-.13,1.64.44,1.77,1.29.13.81-.4,1.58-1.19,1.76-64.67,14.53-127.81,34.97-188.38,60.91-4.04,1.73-8.73-.14-10.46-4.19-1.82-4.2.35-9.14,4.67-10.65h0Z"/>
    <path class="cls-1" d="M533.74,204.02c37.36-15.22,76.62-25.88,116.52-30.1.8-.08,1.52.5,1.61,1.3.08.77-.46,1.46-1.21,1.59-39.23,6.73-77.06,19.7-112.6,36.91-6.62,2.91-10.96-6.69-4.32-9.71h0Z"/>
  </g>
</svg>